<svg xmlns="http://www.w3.org/2000/svg" viewBox="0 0 150 150">
<!-- SVG created with Arrow, by QuiverAI (https://quiver.ai) -->
  <style type="text/css">.cls-0 {fill:#17181C;}
.cls-1 {fill:#4C5561;}
.cls-2 {fill:#2B333F;}
.cls-3 {fill:#1A202D;}
.cls-4 {fill:#696556;}
.cls-5 {fill:#353D4B;}
.cls-6 {fill:#79715D;}
.cls-7 {fill:#BFA76C;}
.cls-8 {fill:#968251;}
.cls-9 {fill:#87744B;}
.cls-10 {fill:#DCE3E8;}
.cls-11 {fill:#A3AFBA;}
.cls-12 {fill:#BEC8D3;}</style>
  <path class="cls-0" d="m136.2 48.2 12.3-10.2-14.8 4.4 7.8-11.1-22.9 11.5 3.1-3-22.4 7-12.5 6.9-3.6-4.3 0.7-4.8c3.4-1.7 7.4-3.6 9.5-1.7-0.3-3.5-4.1-4.6-6.1-5.4-1 0-3.4 0.1-4.3 0.2-1.9-0.7-4.2-1.2-6.8-1.3l-6.5 3.6c-0.6 1.7-6.4 12.1-7.2 13.8l-13-7-22-7.2 2.9 3.3-22.1-11.6 8 11.2-14.9-4.6 11.6 10.3-11.7-1 0.2 0.5 12 8.5-7.1 1.5 0.1 1.1 11.9 3.8-3.4 1.5v1.1l9.6 2-3.4 2.3v1.2l9.6 1.3-1.8 2.1-0.1 0.9 8.9-0.6 5.6 7.5h0.2l1.4-3.4 4.4 7 2.7-4.3 0.2 1.9 10.2 6.5-10.3 11.9 10.7-2.6-2.5 4.2 2.4 8.7 6.1-4.8 5.6 11.7 5.4-11.8 6.4 4.9 2.4-8.7-2.4-4.2 10.5 2.6-10.3-11.9 10.3-6.5 0.3-1.9 2.7 4.3 4.1-7 1.4 3.4 0.4-0.2 5.8-7.3 8.8 0.5-0.2-0.8-1.7-2 10.1-1.4v-1.2l-3.9-2.4 10.3-1.9v-1l-3.4-1.6 11.8-3.9 0.1-1-7.3-1.5 12.5-8.4 0.1-0.6-12 0.9-0.5 0.1z"/>
  <path class="cls-1" d="m70.6 40.6-7.5 13.9 6.4-3.7 5-8.2 1.6 2.6 2.8-3-2.6-1.5 1.3-1.4 1.5 0.5 2.8-1.4c-1.5-0.6-3.5-1-5.3-1.2l-6 3.4z"/>
  <path class="cls-2" d="m69.5 49.4-6.4 5.1 0.3 0.9 0.7-0.1 5.2-3.8 5.2-8.9z"/>
  <path class="cls-1" d="m11.1 33.9 5.8 7.5 13.8 2.5-19.6-10z"/>
  <path class="cls-2" d="m17.3 41.5 0.8 1.1 18 5.4-4.3-3.7-14.8-3 0.3 0.2z"/>
  <path class="cls-1" d="m4.9 39.9 9.1 7.7 6.2-3-15.3-4.7z"/>
  <path class="cls-2" d="m14 47.6 23.8 2.3-17.6-5.3z"/>
  <path class="cls-5" d="m15.1 47.9 23 2-0.8-0.5-17.1-4.8z"/>
  <path class="cls-1" d="m11.1 33.9 5.8 7.5 13.8 2.5-19.6-10z"/>
  <path class="cls-6" d="m22.6 69.8 8.9 1.4 11.4-13.5-20.3 12.1z"/>
  <path class="cls-6" d="m4.7 48.6 9.9 7.1 5.1-5.4-15-1.7z"/>
  <path class="cls-7" d="m4.6 48.6 10 7.1 5.1-5.4-15.1-1.7z"/>
  <path class="cls-8" d="m14.6 55.7 23.8-3.8-18.7-1.6-5.1 5.4z"/>
  <path class="cls-2" d="m8.2 58.2 11.5 3.6 19.9-8.4-31.4 4.8z"/>
  <path class="cls-2" d="m17 64.5 8.3 2.1 11.2-10.4-19.5 8.3z"/>
  <path class="cls-3" d="m25.3 66.6 17.7-10.6-2.8-2.7-14.9 13.3z"/>
  <path class="cls-5" d="m30.6 73.9 6.8-0.4 6.5-7.2-13.3 7.6z"/>
  <path class="cls-1" d="m38.9 74.2 4.3 5.8 1-13.2-5.3 7.4z"/>
  <path class="cls-2" d="m44.3 65.9-1.1 14.1 6.5-16.9-5.3 2.8h-0.1z"/>
  <path class="cls-1" d="m44.5 57.6-0.3 8.4 5.5-2.9-5.2-5.5z"/>
  <path class="cls-2" d="m30.9 41.9 14.5 14.7 1.6-6.3-16.1-8.4z"/>
  <path class="cls-5" d="m47 50.3-1.6 6.3 5.2 5.8-0.8-7.2-2.8-4.9z"/>
  <path class="cls-2" d="m47 50.3 9.6 8.4-0.1-0.2-7.2-10.6-18.4-6 16.1 8.4z"/>
  <path class="cls-6" d="m31.1 42 18.2 5.9 7.2 10.6-9.1-8.1-16.3-8.4z"/>
  <path class="cls-5" d="m47 50.3 3.6 12.1 5.9-3.9-9.5-8.2z"/>
  <path class="cls-5" d="m62.4 54.7-13.1-6.7 7.2 10.5 5.7-3.1 0.2-0.7z"/>
  <path class="cls-1" d="m30.6 73.9 13.9-16.3-0.2 8.4-13.7 7.9z"/>
  <path class="cls-1" d="m49.7 82.5 0.5-16.1-4.7 10.9 3.2 5.2h1z"/>
  <path class="cls-2" d="m49.7 82.5 2-2.6 0.1-14.9-0.9-0.1-1.2 17.6z"/>
  <path class="cls-8" d="m15.1 55.7 23.3-3.8-18.7-1.6-4.6 5.4z"/>
  <path class="cls-1" d="m138.6 33.9-5.8 8-13.6 1.7 19.4-9.7z"/>
  <path class="cls-2" d="m132.8 41.9-0.9 0.8-18.2 5.3 3.8-3.6 15.3-2.5z"/>
  <path class="cls-1" d="m145.1 39.9-9.3 7.7-5.9-3 15.2-4.7z"/>
  <path class="cls-2" d="m135.8 47.6-23.9 2.3 18-5.3 5.9 3z"/>
  <path class="cls-6" d="m145.3 48.6-10.1 7-5-5.4 15.1-1.6z"/>
  <path class="cls-7" d="m145.3 48.6-10.1 7-5-5.4 15.1-1.6z"/>
  <path class="cls-8" d="m135.2 55.6-23.8-3.7 18.8-1.7 5 5.4z"/>
  <path class="cls-2" d="m141.5 58.2-11.4 3.6-20.5-8.4 31.9 4.8z"/>
  <path class="cls-2" d="m132.8 64.5-9 2-10.7-10.4 19.7 8.4z"/>
  <path class="cls-3" d="m123.8 66.5-17.5-10.3 2.7-2.9 14.8 13.2z"/>
  <path class="cls-6" d="m127 69.8-9.3 1.5-11.8-13.8 21.1 12.3z"/>
  <path class="cls-1" d="m118.5 73.8-6.8-0.4-6.8-7.6 13.6 8z"/>
  <path class="cls-2" d="m104.6 65.9 1.1 14.1 4.7-5.9-5.8-8.2z"/>
  <path class="cls-1" d="m104.5 57.7 0.2 8.3-5.2-2.9 5-5.4z"/>
  <path class="cls-2" d="m118.4 42-14.6 14.6-1.8-6.3 16.4-8.3z"/>
  <path class="cls-5" d="m102 50.3 1.8 6.3-5.2 5.8 1-7.2 2.4-4.9z"/>
  <path class="cls-2" d="m102 50.3-9.1 8.2 7.1-10.6 18.4-5.9-16.4 8.3z"/>
  <path class="cls-6" d="m118.1 42.2-18.1 5.7-6.9 10.3 8.9-7.8 16.1-8.2z"/>
  <path class="cls-5" d="m102 50.3-3.4 12.1-5.5-3.9 8.9-8.2z"/>
  <path class="cls-5" d="m87 54.7 13-6.8-6.9 10.6-6-3.1-0.1-0.7z"/>
  <path class="cls-1" d="m118.5 73.8-14-16.1 0.1 8.2 13.9 7.9z"/>
  <path class="cls-1" d="m99.8 82.5-1.6-2.6v-15l-0.8 1.4v14.1l1.9 2.1h0.5z"/>
  <path class="cls-1" d="m100.4 82.5-0.7-15.7 3.8 10.4-3.1 5.3z"/>
  <path class="cls-8" d="m135.2 55.6-23.8-3.7 18.8-1.7 5 5.4z"/>
  <path class="cls-6" d="m83.3 38.6c-0.9 0.7-2.4 2.2-2.9 3.1l5.9-1.3c1.4-0.1 4.3 0.1 5.5 0.7-0.9-1.2-2.8-2.1-4.8-2.6l-3.7 0.1z"/>
  <path class="cls-0" d="m79.7 42.4 6.9-1.4c1.2 0 3.1 0.3 3.9 0.6l-7.3 2.3-3.5-1.5z"/>
  <path class="cls-3" d="m76.2 45.2 2.8 4.7 4-5.5-3.7-1.9-3.1 2.7z"/>
  <path class="cls-2" d="m83 44.4-0.6 5.1 3.4 4.9-0.2 0.9-6.2-4.3-0.6-1 4.2-5.6z"/>
  <path class="cls-1" d="m82.2 49.9 3.7 4.6-0.1 0.8-2.9-1.8-0.7-3.6z"/>
  <path class="cls-6" d="m86 58.2c1.3 0.1 2.1 0.5 3.1 1.1l6.1 4v6.9h-4.3v-4.5l-3.3-2.4c-0.3-2.2-1.1-4.4-1.6-5.1z"/>
  <path class="cls-8" d="m90.9 65.6-3.5-2.4-0.7-2.7 6.5 4.1-2.3 5.6v-4.6z"/>
  <path class="cls-9" d="m90.9 75.6h4.3v7l-5.4 3.2c-3.5 2.5-9.4 1.9-11.9-2.4l-10-17.5c-1.4-3-5.3-4.8-9.5-0.3l-4.3-2.3 5.7-3.6c3.1-2 8.1-1.4 10.3 1.8 1.5 2.1 7.5 12.5 10.5 18.1 2 4 5 4.3 7.5 2.8l2.8-1.9v-4.9z"/>
  <path class="cls-7" d="m58.4 65.5-4.3-2.2 5.7-3.6c3.1-2 8.1-1.4 10.3 1.8 1.5 2.1 7.5 12.5 10.5 18.1 1.8 3.8 5 6.1 9 3.9l3.7-2.1-2.3-5.7v4.6l-2.6 1.7c-1.2 0.8-4.9 2.2-7.3-1.7l-11.5-16.2c-2-3.2-6.2-4.7-9.8-2.1l-3.2 2.6 1.8 0.9z"/>
  <path class="cls-7" d="m78.2 61-3 5.8 2.3 4.3 1.9-4.6c0.7-1.4 0.4-4.1-1.2-5.5z"/>
  <path class="cls-8" d="m78.2 61-3 5.8 1.2 2.2 2.9-6.7-1.1-1.3z"/>
  <path class="cls-7" d="m71.3 75.1-2.2 5.1c-0.4 1.7 0.3 4.1 1.3 4.8l3.4-5.6-2.5-4.3z"/>
  <path class="cls-8" d="m72.6 77.3-3.1 6.3 0.9 1.4 3.4-5.6-1.2-2.1z"/>
  <path class="cls-9" d="m54.1 63.3-0.1 19.4 6.5 3.8c1 0.6 2.1 1.2 2.7 1.2-0.8-1.7-1.3-3.7-1.5-5.2l-3.3-2v-15l-4.3-2.2z"/>
  <path class="cls-8" d="m54 82.7 4.4-2.2-4.3-17.2-0.1 19.4z"/>
  <path class="cls-9" d="m56.5 81.6 5.5 3.9-0.3-3-3.3-2-1.9 1.1z"/>
  <path class="cls-8" d="m91 75.7 2.3 5.7-2.4-1.1 0.1-4.6z"/>
  <path class="cls-9" d="m93.3 81.4-4.6 2.7c-3.1 1.9-7.3 1-9.1-2.1l-10-17.9c-2-3.2-6.2-4.7-9.8-2.1l-3.2 2.4 1.8 1.1c2.7-2.8 7-4.4 9.5 0l9.7 17.1c2.8 5.3 8.4 5.7 11.5 3.8l6.1-3.8-1.9-1.2z"/>
  <path class="cls-10" d="m63.4 64.5v17.6c0.2 4.6 3 6.8 5.2 8.4l5.9 4.9 8.5-6.7c-1.3-0.1-2.9-1-4.1-2.1l-4.3 3.3-4.4-3c-1.5-1-2.6-3.2-2.6-5.8v-12.7c0-1.4-1.6-4.3-4.2-3.9z"/>
  <path class="cls-11" d="m63.4 82.5 1.8-2c-0.1 3 1.3 6 2.8 7.1l-1 1.6c-1.5-1.2-3.5-3.5-3.6-6.7z"/>
  <path class="cls-12" d="m63.4 82.5 1.8-2c0 2.9 1.3 6.1 3.2 7.2l4 3.7-5.4-2.2c-1.5-1.2-3.4-3.5-3.6-6.7z"/>
  <path class="cls-12" d="m63.4 64.5 2 6-0.4-5.8-1.6-0.2z"/>
  <path class="cls-10" d="m85.7 81.2v-17.6c-0.2-3.7-2.6-7-4.7-8.5l-2.9-2.2-3.5-6.6-3.5 6.2-5.1 4.4c1.4 0.3 3 1 4 2l4.4-3.7 4 2.8c1.6 1.1 3 3.4 3 5.9v13.7c0.2 1.4 1.5 4.3 4.3 3.6z"/>
  <path class="cls-11" d="m83.7 75.6 0.4 5.5 1.6 0.1-2-5.6z"/>
  <path class="cls-12" d="m74.4 49.1-1.8 4.8-4.6 3.7 2 1.3 4.4-3.7 4 2.8c1.8 1.1 5.1 3.9 5.1 7v11.1l0.6-0.2s-0.4-10.5-0.6-12.5c-0.3-2-2-4.9-4-6.4-1.9-1.5-2.6-2.1-3-2.9l-2.1-5z"/>
  <path class="cls-10" d="m74.5 95.4 4-5.9 2.4-1.8 2.1 1-8.5 6.7z"/>
  <path class="cls-11" d="m74.5 90.1v5.3l4-5.9 2.4-1.8-2-1.1-4.4 3.5z"/>
  <path class="cls-1" d="m63.2 90.2-7.8 9.2 9.1-6.8 0.5-1.1-1.8-1.3z"/>
  <path class="cls-2" d="m64.5 92.6-9.1 6.8 7.8-1.7 1.8-6.2-0.5 1.1z"/>
  <path class="cls-2" d="m67.9 93.5-6.4 9.9 1.9 6.7 5.2-4.2 2-10.3-2.7-2.1z"/>
  <path class="cls-1" d="m63.4 110.1 4.6-16.6-6.5 9.9 1.9 6.7z"/>
  <path class="cls-1" d="m69.6 105.9 4.9 10.7v-16.2l-4.9 5.5z"/>
  <path class="cls-2" d="m71.7 96.4-2.1 9.5 4.9-5.5 0.1-2-2.9-2z"/>
  <path class="cls-2" d="m77.4 96.4 1.7 9.7-4.6 10.5v-18.2l2.9-2z"/>
  <path class="cls-1" d="m81 93.5 4.6 16.6 2-6.7-6.6-9.9z"/>
  <path class="cls-2" d="m78.4 95.5 1.8 10.4 5.4 4.2-4.7-16.6-2.5 2z"/>
  <path class="cls-1" d="m85.9 90.2 8 9.2-9.8-7.5 1.8-1.7z"/>
  <path class="cls-3" d="m84.1 91.9 1.5 5.8 8.3 1.7-9.8-7.5z"/>
</svg>